<?xml version="1.0" standalone="no"?>
<!DOCTYPE svg PUBLIC "-//W3C//DTD SVG 20010904//EN"
 "http://www.w3.org/TR/2001/REC-SVG-20010904/DTD/svg10.dtd">
<svg version="1.0" xmlns="http://www.w3.org/2000/svg"
 width="260.000000pt" height="260.000000pt" viewBox="0 0 260.000000 260.000000"
 preserveAspectRatio="xMidYMid meet">
<metadata>
Created by potrace 1.11, written by Peter Selinger 2001-2013
</metadata>
<g transform="translate(0.000000,260.000000) scale(0.100000,-0.100000)"
fill="#000000" stroke="none">
<path d="M857 2469 c-100 -23 -155 -79 -163 -169 -5 -50 15 -120 34 -120 8 0
13 -3 9 -6 -3 -4 1 -13 9 -21 13 -14 12 -18 -18 -36 -18 -12 -36 -20 -40 -19
-5 1 -7 -4 -5 -11 1 -6 -4 -11 -10 -9 -7 1 -13 -2 -13 -7 0 -5 -9 -13 -20 -16
-11 -4 -18 -11 -15 -16 4 -5 2 -9 -2 -9 -9 0 -93 -77 -93 -85 0 -3 -8 -13 -17
-23 -36 -38 -51 -60 -46 -66 4 -3 1 -6 -5 -6 -7 0 -20 -16 -29 -35 -9 -19 -21
-31 -26 -28 -6 4 -8 -2 -5 -15 4 -15 0 -25 -10 -32 -14 -8 -14 -9 -2 -10 12 0
12 -3 -2 -11 -10 -5 -20 -25 -24 -44 -3 -19 -11 -35 -17 -35 -6 0 -8 -3 -4 -6
3 -4 0 -21 -8 -39 -7 -19 -11 -36 -7 -39 3 -3 1 -6 -5 -6 -5 0 -9 -14 -8 -30
1 -17 -2 -33 -6 -35 -4 -3 -6 -16 -4 -30 1 -14 -2 -28 -6 -31 -5 -3 -7 -21 -4
-40 2 -18 0 -34 -5 -34 -5 0 -7 -6 -5 -12 2 -7 7 -47 9 -88 10 -153 31 -229
187 -674 21 -60 36 -112 34 -116 -3 -4 -17 -11 -32 -15 -30 -7 -66 -43 -57
-56 3 -5 1 -9 -4 -9 -13 0 -5 -54 12 -88 20 -38 77 -67 113 -56 15 4 33 8 38
9 6 0 19 6 30 12 11 5 34 14 50 18 41 11 44 12 53 15 4 1 10 2 15 1 4 0 7 4 7
11 0 6 3 9 6 6 3 -4 42 7 87 23 45 16 87 27 95 24 7 -2 10 0 7 5 -3 6 -1 10 4
10 6 0 11 -6 11 -14 0 -8 6 -17 13 -19 10 -4 10 -6 0 -6 -7 -1 -13 -6 -13 -12
0 -5 4 -7 10 -4 5 3 10 -1 10 -9 0 -9 5 -16 11 -16 7 0 9 -9 6 -21 -4 -16 -2
-19 10 -15 14 6 14 4 2 -11 -8 -9 -9 -14 -3 -10 7 4 17 0 24 -8 7 -8 19 -15
27 -15 8 0 11 -4 8 -10 -3 -5 3 -10 14 -10 32 0 35 -1 48 -12 7 -6 10 -15 7
-20 -4 -6 5 -3 19 6 22 15 25 15 31 1 3 -9 11 -13 17 -9 7 4 26 9 43 11 17 2
33 8 34 13 2 6 10 10 18 10 8 0 14 4 14 9 0 5 9 13 20 16 11 4 17 11 14 17 -4
6 -2 8 3 5 15 -9 37 19 27 34 -5 9 -2 10 11 5 15 -5 16 -4 5 9 -10 12 -9 16 6
22 11 5 20 14 22 21 1 8 -2 11 -8 7 -15 -9 -12 12 4 27 11 11 11 14 -2 24 -12
9 -12 13 -2 19 9 5 11 4 6 -3 -4 -7 -2 -12 4 -12 7 0 9 7 6 16 -3 9 -6 18 -6
20 0 3 -6 2 -12 -1 -7 -4 -4 1 6 9 18 15 13 21 -15 18 -3 -1 -6 5 -6 13 0 8 5
12 11 9 6 -3 3 1 -8 10 -25 20 -15 32 47 52 28 9 58 21 65 27 6 5 12 7 12 3 0
-3 16 0 35 8 19 8 35 12 35 9 0 -3 7 1 17 8 9 8 19 13 22 13 7 -2 23 3 74 22
20 8 37 11 37 8 0 -4 6 -1 13 5 8 6 17 8 20 4 4 -3 7 -2 7 4 0 6 17 14 38 18
20 4 43 11 50 17 6 6 12 7 12 3 0 -4 7 -2 15 5 8 7 15 10 15 6 0 -4 17 2 39
13 21 11 41 17 45 14 3 -3 12 0 21 7 8 7 15 9 15 5 0 -4 6 -3 13 2 11 10 134
53 160 57 7 1 18 5 24 9 7 5 21 10 30 12 10 2 41 12 69 23 29 12 55 18 58 15
3 -4 6 -1 6 6 0 7 4 10 9 7 5 -3 21 6 36 21 19 20 26 35 23 55 -3 16 0 24 6
21 5 -4 7 1 3 11 -4 10 -10 28 -13 41 -13 51 -70 70 -152 51 -22 -5 -23 -3
-18 22 5 18 4 22 -3 13 -7 -11 -10 -9 -16 8 -3 11 -3 25 0 31 3 5 1 10 -5 10
-6 0 -9 4 -6 9 4 5 2 11 -4 13 -6 2 -11 17 -13 35 -1 17 -5 29 -9 26 -7 -4
-13 28 -9 50 0 4 -3 7 -8 7 -5 0 -11 8 -14 18 -2 9 -8 26 -13 36 -6 15 -4 17
7 11 10 -6 9 -3 -2 11 -9 10 -14 25 -11 33 3 9 0 11 -8 6 -10 -6 -12 -4 -7 8
3 9 2 19 -4 23 -6 3 -8 12 -5 20 3 8 1 14 -5 14 -6 0 -8 4 -4 9 3 5 -2 17 -12
26 -14 14 -14 18 -2 26 10 6 11 9 1 9 -14 0 -31 39 -34 76 -1 13 -6 24 -10 24
-4 0 -8 4 -8 10 0 16 -61 140 -68 140 -4 0 -18 20 -31 45 -13 25 -26 43 -29
40 -3 -3 -18 14 -34 37 -15 24 -28 40 -28 35 0 -4 -20 14 -45 40 -25 25 -45
43 -45 38 0 -5 -7 1 -16 13 -8 12 -19 20 -24 17 -4 -3 -10 1 -13 8 -3 6 -22
21 -43 32 -22 11 -47 29 -56 40 -10 11 -17 16 -18 11 0 -4 -10 -1 -23 7 -13 8
-43 21 -68 28 -24 7 -49 17 -56 21 -6 5 -28 10 -47 11 -20 1 -36 5 -36 9 0 4
-7 4 -17 1 -9 -4 -14 -2 -10 3 3 6 -8 10 -29 9 -18 -1 -34 1 -34 5 0 3 -16 5
-35 4 -24 -2 -33 0 -29 8 4 7 3 8 -4 4 -7 -4 -43 -9 -81 -11 -77 -4 -88 3 -86
50 1 17 -1 35 -4 40 -3 6 -6 12 -6 15 0 14 -47 82 -52 76 -3 -3 -12 3 -20 14
-8 12 -25 20 -42 20 -15 0 -31 4 -36 8 -6 5 -27 5 -48 1z m92 -109 c13 -14 20
-18 16 -10 -6 11 -5 12 4 4 17 -15 22 -72 9 -102 -6 -15 -10 -31 -9 -35 1 -5
-8 -11 -19 -14 -11 -3 -20 -10 -20 -15 0 -6 -9 -8 -19 -5 -10 2 -24 1 -31 -3
-15 -9 -60 8 -60 22 0 5 -4 7 -9 4 -9 -6 -26 22 -23 37 1 4 -2 7 -7 7 -12 0
-11 52 1 68 6 6 7 12 2 12 -5 0 2 7 14 16 12 8 19 20 16 26 -4 7 -2 8 4 4 7
-4 12 -2 12 4 0 6 18 10 48 8 35 -2 53 -9 71 -28z"/>
<path d="M1521 473 c0 -32 -2 -104 -6 -160 l-7 -103 111 0 111 0 0 25 c0 23
-3 24 -72 27 l-73 3 3 82 c2 45 4 105 6 132 l3 51 -38 0 -39 0 1 -57z"/>
<path d="M1779 483 c-1 -88 -10 -248 -14 -260 -3 -9 8 -13 35 -13 25 0 40 5
40 13 1 6 3 78 6 160 l5 147 -35 0 -36 0 -1 -47z"/>
<path d="M1920 428 c21 -57 46 -129 56 -160 l18 -58 41 0 42 0 82 160 81 160
-38 0 c-35 0 -40 -3 -57 -42 -10 -24 -38 -83 -61 -132 l-42 -89 -43 131 -42
132 -37 0 -38 0 38 -102z"/>
<path d="M2261 468 c-1 -35 -4 -107 -7 -160 l-5 -98 114 0 c105 0 115 2 120
19 3 11 2 22 -1 25 -3 3 -40 6 -83 6 l-79 0 4 38 c3 20 5 40 5 44 1 4 13 6 29
6 98 -2 112 1 112 26 0 22 -3 23 -67 22 l-68 -1 -3 42 -3 42 82 3 c76 3 82 5
85 26 4 22 3 22 -115 22 l-118 0 -2 -62z"/>
<path d="M1095 171 c-3 -5 -2 -12 3 -15 5 -3 9 1 9 9 0 17 -3 19 -12 6z"/>
</g>
</svg>
